<?xml version="1.0" encoding="UTF-8"?>
<!DOCTYPE svg PUBLIC "-//W3C//DTD SVG 1.1//EN" "http://www.w3.org/Graphics/SVG/1.1/DTD/svg11.dtd">
<svg xmlns="http://www.w3.org/2000/svg" version="1.1" width="512px" height="448px" style="shape-rendering:geometricPrecision; text-rendering:geometricPrecision; image-rendering:optimizeQuality; fill-rule:evenodd; clip-rule:evenodd" xmlns:xlink="http://www.w3.org/1999/xlink">
<g><path style="opacity:0.999" fill="#051cda" d="M 23.5,-0.5 C 178.167,-0.5 332.833,-0.5 487.5,-0.5C 499.167,3.83333 507.167,11.8333 511.5,23.5C 511.5,28.8333 511.5,34.1667 511.5,39.5C 507.35,51.1488 499.35,58.9821 487.5,63C 332.833,63.6667 178.167,63.6667 23.5,63C 11.6498,58.9821 3.6498,51.1488 -0.5,39.5C -0.5,34.1667 -0.5,28.8333 -0.5,23.5C 3.83333,11.8333 11.8333,3.83333 23.5,-0.5 Z"/></g>
<g><path style="opacity:0.998" fill="#051cda" d="M -0.5,231.5 C -0.5,226.167 -0.5,220.833 -0.5,215.5C 3.6498,203.851 11.6498,196.018 23.5,192C 114.167,191.333 204.833,191.333 295.5,192C 314.141,198.659 321.975,211.825 319,231.5C 315.167,243.333 307.333,251.167 295.5,255C 204.833,255.667 114.167,255.667 23.5,255C 11.6498,250.982 3.6498,243.149 -0.5,231.5 Z"/></g>
<g><path style="opacity:0.999" fill="#051cda" d="M 511.5,407.5 C 511.5,412.833 511.5,418.167 511.5,423.5C 507.167,435.167 499.167,443.167 487.5,447.5C 332.833,447.5 178.167,447.5 23.5,447.5C 11.8333,443.167 3.83333,435.167 -0.5,423.5C -0.5,418.167 -0.5,412.833 -0.5,407.5C 3.6498,395.851 11.6498,388.018 23.5,384C 178.167,383.333 332.833,383.333 487.5,384C 499.35,388.018 507.35,395.851 511.5,407.5 Z"/></g>
</svg>
